<!-- icon666.com - MILLIONS vector ICONS FREE --><svg id="Layer_1" viewBox="0 0 24 24" xmlns="http://www.w3.org/2000/svg" data-name="Layer 1"><path d="m20.51 6.56h-2.92a.52.52 0 0 1 -.48-.34l-.36-1.09a2 2 0 0 0 -1.92-1.38h-5.66a2 2 0 0 0 -1.92 1.38l-.36 1.09a.51.51 0 0 1 -.48.34h-2.92a2.55 2.55 0 0 0 -2.55 2.55v8.59a2.55 2.55 0 0 0 2.55 2.55h17a2.55 2.55 0 0 0 2.55-2.55v-8.59a2.55 2.55 0 0 0 -2.53-2.55zm1 11.14a1 1 0 0 1 -1 1.05h-17a1 1 0 0 1 -1.07-1.05v-8.59a1 1 0 0 1 1.05-1h2.92a2 2 0 0 0 1.9-1.37l.36-1.08a.52.52 0 0 1 .5-.36h5.66a.52.52 0 0 1 .5.36l.36 1.08a2 2 0 0 0 1.9 1.37h2.92a1 1 0 0 1 1 1z" fill="#000000" style="fill: rgb(255, 255, 255);"></path><path d="m12 8.44a4 4 0 1 0 4 4 4 4 0 0 0 -4-4zm0 6.56a2.53 2.53 0 1 1 2.53-2.53 2.53 2.53 0 0 1 -2.53 2.53z" fill="#000000" style="fill: rgb(255, 255, 255);"></path></svg>